<svg width="612" height="344" viewBox="0 0 612 344" fill="none" xmlns="http://www.w3.org/2000/svg">
<path d="M321.37 105.31C315.7 98.1202 302.96 96.9702 295.4 101.63C281.33 110.31 289.83 126.69 277.57 134.85C260.1 146.48 239.08 125.15 251.53 107.67C259.51 96.4602 270.93 102.73 279.94 95.2302C288.87 87.7902 284.76 78.7802 289.16 70.4202C297.21 55.1302 320.82 58.3202 324.78 75.2702C326.37 82.0802 324.72 87.3102 330.49 93.3802C340.41 103.8 356.06 94.4102 362.94 111.98C371.47 133.78 340.81 148.27 329.32 128.59C324.61 120.52 328.15 113.91 321.37 105.3" fill="white"/>
<path d="M327.61 152.75C331.07 182.52 285.17 186.08 284.19 156.14C283.3 129.01 324.5 125.98 327.61 152.75Z" fill="white"/>
<path d="M151.8 288.26C146.31 288.26 141.26 287.36 136.65 285.55C132.03 283.74 128.02 281.22 124.61 277.97C121.2 274.73 118.55 270.91 116.68 266.53C114.81 262.15 113.87 257.35 113.87 252.13C113.87 246.91 114.81 242.11 116.68 237.73C118.55 233.35 121.2 229.54 124.61 226.29C128.02 223.05 132.04 220.52 136.65 218.71C141.27 216.9 146.28 216 151.7 216C157.12 216 162.22 216.9 166.8 218.71C171.38 220.52 175.38 223.04 178.79 226.29C182.2 229.54 184.84 233.35 186.72 237.73C188.59 242.11 189.53 246.91 189.53 252.13C189.53 257.35 188.59 262.16 186.72 266.58C184.85 271 182.2 274.81 178.79 278.02C175.38 281.23 171.38 283.74 166.8 285.55C162.22 287.36 157.22 288.26 151.8 288.26ZM151.7 276.82C155.24 276.82 158.52 276.22 161.53 275.01C164.54 273.81 167.15 272.08 169.36 269.84C171.57 267.6 173.29 264.99 174.53 262.01C175.77 259.03 176.39 255.74 176.39 252.13C176.39 248.52 175.77 245.22 174.53 242.24C173.29 239.26 171.57 236.65 169.36 234.41C167.15 232.17 164.54 230.45 161.53 229.24C158.52 228.04 155.24 227.43 151.7 227.43C148.16 227.43 144.89 228.03 141.92 229.24C138.94 230.44 136.33 232.17 134.09 234.41C131.85 236.65 130.11 239.26 128.87 242.24C127.63 245.22 127.01 248.51 127.01 252.13C127.01 255.75 127.63 258.95 128.87 261.96C130.11 264.97 131.83 267.6 134.04 269.84C136.25 272.08 138.86 273.8 141.87 275.01C144.88 276.21 148.16 276.82 151.7 276.82Z" fill="white"/>
<path d="M199.37 287.25V217.01H210.11L240.82 268.28H235.2L265.4 217.01H276.14L276.24 287.25H263.9L263.8 236.37H266.41L240.72 279.22H234.9L208.8 236.37H211.81V287.25H199.37Z" fill="white"/>
<path d="M304.24 217.01H291.19V287.26H304.24V217.01Z" fill="white"/>
<path d="M319.19 287.25V217.01H329.93L360.64 268.28H355.02L385.22 217.01H395.96L396.06 287.25H383.72L383.62 236.37H386.23L360.54 279.22H354.72L328.62 236.37H331.63V287.25H319.19Z" fill="white"/>
<path d="M424.06 217.01H411.01V287.26H424.06V217.01Z" fill="white"/>
<path d="M430.48 287.25L460.08 246.51V256.34L431.89 217.01H446.64L467.61 246.11L461.59 246.21L482.36 217.01H496.51L468.51 255.64V246.21L498.32 287.25H483.27L461.19 256.34H467.11L445.33 287.25H430.48Z" fill="white"/>
</svg>
